PathFileType	3	(X/Y/Z)	D:\Vicon Database\Healthy Subjects\S0040\Jan. 30, 2020\Force Plate Walk 2.trc
DataRate	CameraRate	NumFrames	NumMarkers	Units	OrigDataRate	OrigDataStartFrame	OrigNumFrames
100.0	100.0	4	53	mm	100.0	497	306	
Frame#	Time	right_foot_cluster2			right_foot_cluster3			sternum_cluster1			sternum_cluster2			sternum_cluster3			left_asis			right_asis			left_psis			right_psis			sacrum_cluster1			sacrum_cluster2			sacrum_cluster3			left_lat_femoral_epicondyle			left_anterior_thigh15			left_anterior_thigh25			left_anterior_thigh50			left_lateral_thigh25			left_lateral_thigh50			left_thigh_cluster1			left_thigh_cluster2			left_thigh_cluster3			left_fibular_head			left_tibial_tuberosity			left_anterior_shank30			left_lateral_malleolus			left_shank_cluster1			left_shank_cluster2			left_shank_cluster3			left_heel			left_metatarsal2			left_foot_cluster1			left_foot_cluster2			left_foot_cluster3			right_lat_femoral_epicondyle			right_anterior_thigh15			right_anterior_thigh25			right_anterior_thigh50			right_lateral_thigh25			right_lateral_thigh50			right_thigh_cluster1			right_thigh_cluster2			right_thigh_cluster3			right_fibular_head			right_tibial_tuberosity			right_lateral_distal_shank			right_anterior_shank30			right_lateral_malleolus			right_shank_cluster1			right_shank_cluster2			right_shank_cluster3			right_heel			right_metatarsal2			right_foot_cluster1			
		X1	Y1	Z1	X2	Y2	Z2	X3	Y3	Z3	X4	Y4	Z4	X5	Y5	Z5	X6	Y6	Z6	X7	Y7	Z7	X8	Y8	Z8	X9	Y9	Z9	X10	Y10	Z10	X11	Y11	Z11	X12	Y12	Z12	X13	Y13	Z13	X14	Y14	Z14	X15	Y15	Z15	X16	Y16	Z16	X17	Y17	Z17	X18	Y18	Z18	X19	Y19	Z19	X20	Y20	Z20	X21	Y21	Z21	X22	Y22	Z22	X23	Y23	Z23	X24	Y24	Z24	X25	Y25	Z25	X26	Y26	Z26	X27	Y27	Z27	X28	Y28	Z28	X29	Y29	Z29	X30	Y30	Z30	X31	Y31	Z31	X32	Y32	Z32	X33	Y33	Z33	X34	Y34	Z34	X35	Y35	Z35	X36	Y36	Z36	X37	Y37	Z37	X38	Y38	Z38	X39	Y39	Z39	X40	Y40	Z40	X41	Y41	Z41	X42	Y42	Z42	X43	Y43	Z43	X44	Y44	Z44	X45	Y45	Z45	X46	Y46	Z46	X47	Y47	Z47	X48	Y48	Z48	X49	Y49	Z49	X50	Y50	Z50	X51	Y51	Z51	X52	Y52	Z52	X53	Y53	Z53	
497	4.96	586.99939	96.742371	-131.99641	586.24005	101.25024	-169.14212	323.96976	1420.1365	-53.544758	313.86252	1392.0116	-44.309414	310.86295	1395.3694	-81.966049	356.86163	1046.3165	55.791134	339.84476	1050.0823	-192.33945	518.84875	1059.8157	2.8869567	511.3898	1067.7253	-114.31818	524.34399	1121.361	-61.189316	529.42615	1096.6588	-74.641838	535.005	1089.6141	-36.037399	235.17844	548.14148	85.892014	182.66982	651.99139	36.659027	206.93336	733.58612	47.259941	265.57318	854.6488	60.427422	303.75119	683.61774	108.83856	359.1763	823.41949	131.14474	343.21234	778.87903	138.53102	334.93951	749.93896	136.1409	304.80472	771.97791	141.54233	197.64845	480.99298	94.931953	142.01057	489.5069	39.020477	74.544754	248.53554	39.885994	74.288849	120.73248	72.564857	123.2469	439.13199	14.105698	109.60942	415.07928	23.50869	122.99454	408.6127	-12.248767	126.53986	55.751614	34.491924	-70.711044	150.00404	37.527283	2.4522352	170.02495	44.165119	-25.906334	164.25505	53.938522	-27.3445	171.72691	16.489748	537.02869	531.06415	-205.00957	430.90048	588.2489	-142.95125	382.69604	660.39148	-141.5287	336.64658	786.33722	-157.39497	477.96298	680.5849	-229.96725	431.46902	819.56781	-258.8063	453.48627	771.43707	-263.77582	449.61337	743.69012	-258.2554	488.31403	752.09674	-255.99376	569.83087	470.1315	-208.15526	523.05798	445.32382	-160.51715	660.95306	214.33533	-195.27693	613.45673	213.91809	-148.57071	695.09717	113.93849	-180.87904	553.19971	386.52063	-107.13398	566.25006	361.23065	-100.47615				776.66254	87.071274	-149.61996	559.14813	59.701099	-143.89084	608.69708	113.81	-140.25462
498	4.97	585.19556	96.781631	-132.15907	584.40729	101.20596	-169.26299	309.17703	1417.6869	-51.763046	299.07761	1389.5704	-42.492416	296.08716	1392.9075	-80.171272	341.84512	1043.7006	57.402054	324.96326	1047.6339	-191.02473	503.97241	1057.4211	4.6360497	496.54877	1065.5966	-112.91843	509.38797	1118.8412	-59.498592	514.45447	1094.2062	-72.938835	520.05975	1087.0564	-34.35149	219.13231	546.81177	87.492851	166.01311	651.43506	36.539188	189.74432	733.32446	48.453594	249.15018	854.47284	62.265533	288.19186	681.94629	109.00503	342.9162	821.60309	132.49634	327.21802	777.21069	139.30414	318.89459	748.21313	136.64871	288.82968	770.38477	141.91595	181.35014	479.48022	96.409737	125.4362	488.71844	40.791386	55.481415	248.44566	41.318336	54.196289	120.50278	73.893944	106.0681	438.42294	15.71806	92.193489	414.51791	25.071547	105.58637	407.98038	-10.625602	105.16392	54.452614	35.781952	-90.179596	152.53557	39.126358	-16.590828	171.09476	45.571175	-44.999874	165.90733	55.420628	-46.516651	173.44876	17.989546	525.71057	530.27545	-204.28304	417.67581	585.92291	-143.04134	369.44449	657.90503	-141.06976	322.72604	783.63361	-156.47015	465.88721	679.09674	-228.38376	417.70746	817.86127	-257.76453	441.39288	769.95435	-261.7959	436.53152	742.02551	-256.90167	475.1767	750.698	-254.17468	560.27808	469.97272	-206.91928	513.48224	443.9509	-159.90509	656.65308	216.11848	-195.08208	609.35486	214.54605	-148.28894	692.91827	116.24225	-180.91403	544.93195	385.48193	-106.53719	558.51709	360.59027	-100.03749				775.01886	91.051529	-149.69504	558.15112	59.211781	-143.88077	606.49225	114.26225	-140.4563
499	4.98	582.97577	96.876205	-132.31247	582.19214	101.05207	-169.52098	294.3085	1415.3719	-49.902077	284.15256	1387.3118	-40.632439	281.20367	1390.6339	-78.285347	326.43213	1041.483	59.128994	309.71335	1045.2357	-189.61371	488.84558	1055.0052	6.3060226	481.13657	1063.0258	-111.27157	494.24738	1116.4567	-57.795448	499.25375	1091.7803	-71.236076	504.89526	1084.7465	-32.636032	202.53542	545.94568	89.079727	148.71411	650.7395	36.348087	171.91949	733.50427	49.972488	232.16685	855.06775	64.315544	271.52484	681.19128	109.6402	326.19989	820.16431	133.8288	310.70377	775.93469	139.87842	302.21957	747.04767	137.28851	272.19742	769.31366	142.30048	164.60489	478.09735	97.993111	108.68021	487.617	42.669548	38.011082	247.39763	42.426746	36.927906	119.12689	74.778999	89.035194	437.28088	17.281693	75.087646	413.39194	26.56963	88.476234	406.89258	-9.1546278	86.895874	52.904362	35.986393	-107.20181	153.18234	41.156128	-33.472496	170.93596	47.276676	-61.754272	165.80447	57.200504	-63.386692	173.64819	19.86334	513.87433	529.44818	-203.46854	402.85556	583.43323	-143.51201	356.47839	655.05164	-140.27138	308.36356	781.06488	-155.5656	452.86349	677.58899	-226.93782	403.4436	816.05267	-256.49036	427.76727	768.26385	-260.24597	425.00244	740.24493	-254.48445	461.78992	749.16583	-252.14174	549.34027	469.77814	-206.34714	503.05069	442.47845	-159.36769	651.66064	218.09319	-194.9536	604.03949	215.29764	-148.35515	689.66217	118.33163	-181.1978	535.9411	384.41656	-105.98181	550.12952	359.90125	-99.60495				772.91339	95.832352	-149.38196	556.84637	58.723209	-144.15384	603.90167	114.77959	-140.772
500	4.99	580.4892	96.972893	-132.65506	579.66046	100.94963	-169.84415	279.3559	1413.2837	-47.921127	269.16837	1385.1942	-38.689789	266.26538	1388.563	-76.328194	310.71741	1039.5995	60.99416	294.18317	1042.9442	-188.07166	473.34201	1052.6439	7.979187	465.48663	1060.6058	-109.50646	478.83344	1113.8873	-56.162533	483.77383	1089.262	-69.522705	489.40421	1082.1505	-30.95216	185.37257	545.23853	90.593475	131.36012	650.04156	36.727734	153.94705	733.74146	51.725967	215.06982	855.70898	66.602997	254.10127	680.74866	110.64882	309.40659	819.15637	135.24026	293.51392	775.1698	141.08191	285.02307	746.18219	138.29303	255.0239	768.76941	143.2682	147.69568	476.64981	99.42379	91.814163	486.1521	44.497581	22.319407	245.25458	43.223145	22.251226	116.80764	75.341064	72.407227	435.53494	18.649761	58.486523	411.58298	27.870296	71.993599	405.21472	-7.8576889	71.406273	50.150604	35.383015	-121.84659	151.88216	43.394386	-47.954445	169.21957	49.020889	-76.123657	164.04831	59.112858	-78.169411	172.38243	21.92083	500.9538	528.43774	-202.61382				341.51028	652.86823	-140.0265	293.53314	778.58606	-154.65349	438.87607	676.24023	-225.66809	389.25369	814.13062	-254.48143	413.6015	766.60156	-258.64212	411.05078	738.70209	-252.98666	447.97327	747.66034	-250.16269	537.68341	469.4631	-205.74112	491.96356	440.83548	-158.74048	645.88562	220.22839	-194.88153	599.19989	216.11333	-148.17842	687.33862	121.83377	-181.54614	526.32935	383.24313	-105.38598	541.12585	359.15073	-99.123772				771.58002	101.4745	-149.76521	554.86731	58.153362	-144.86584	600.96893	115.4235	-141.09207
